<mxfile host="app.diagrams.net" agent="Mozilla/5.0 (Windows NT 10.0; Win64; x64) AppleWebKit/537.36 (KHTML, like Gecko) Chrome/131.0.0.0 Safari/537.36 Edg/131.0.0.0" version="25.0.3">
  <diagram name="Page-1" id="nWav0FxMljMIpkVPyXGa">
    <mxGraphModel dx="1005" dy="853" grid="1" gridSize="10" guides="1" tooltips="1" connect="1" arrows="1" fold="1" page="1" pageScale="1" pageWidth="850" pageHeight="1100" math="0" shadow="0">
      <root>
        <mxCell id="0" />
        <mxCell id="1" parent="0" />
        <mxCell id="vO2ole6xevDvYpz_UumO-18" value="" style="edgeStyle=orthogonalEdgeStyle;rounded=0;orthogonalLoop=1;jettySize=auto;html=1;" edge="1" parent="1" source="vO2ole6xevDvYpz_UumO-15" target="vO2ole6xevDvYpz_UumO-16">
          <mxGeometry relative="1" as="geometry" />
        </mxCell>
        <mxCell id="vO2ole6xevDvYpz_UumO-15" value="MAIN" style="html=1;dashed=0;whiteSpace=wrap;shape=mxgraph.dfd.start" vertex="1" parent="1">
          <mxGeometry x="240" y="100" width="200" height="80" as="geometry" />
        </mxCell>
        <mxCell id="vO2ole6xevDvYpz_UumO-20" value="" style="edgeStyle=orthogonalEdgeStyle;rounded=0;orthogonalLoop=1;jettySize=auto;html=1;" edge="1" parent="1" source="vO2ole6xevDvYpz_UumO-16" target="vO2ole6xevDvYpz_UumO-19">
          <mxGeometry relative="1" as="geometry" />
        </mxCell>
        <mxCell id="vO2ole6xevDvYpz_UumO-16" value="&lt;span id=&quot;docs-internal-guid-143ecfe1-7fff-35a1-d5c2-43c6f7c5462f&quot;&gt;&lt;p style=&quot;line-height:1.38;margin-top:0pt;margin-bottom:0pt;&quot; dir=&quot;ltr&quot;&gt;&lt;span style=&quot;font-size: 11pt; font-family: Arial, sans-serif; background-color: transparent; font-variant-numeric: normal; font-variant-east-asian: normal; font-variant-alternates: normal; font-variant-position: normal; font-variant-emoji: normal; vertical-align: baseline; white-space-collapse: preserve;&quot;&gt;Display &quot;Enter the number of rows and columns of the array: &quot;&lt;/span&gt;&lt;/p&gt;&lt;div&gt;&lt;span style=&quot;font-size: 11pt; font-family: Arial, sans-serif; background-color: transparent; font-variant-numeric: normal; font-variant-east-asian: normal; font-variant-alternates: normal; font-variant-position: normal; font-variant-emoji: normal; vertical-align: baseline; white-space-collapse: preserve;&quot;&gt;&lt;br&gt;&lt;/span&gt;&lt;/div&gt;&lt;/span&gt;" style="shape=parallelogram;perimeter=parallelogramPerimeter;whiteSpace=wrap;html=1;dashed=0;" vertex="1" parent="1">
          <mxGeometry x="170" y="240" width="310" height="110" as="geometry" />
        </mxCell>
        <mxCell id="vO2ole6xevDvYpz_UumO-22" value="" style="edgeStyle=orthogonalEdgeStyle;rounded=0;orthogonalLoop=1;jettySize=auto;html=1;" edge="1" parent="1" source="vO2ole6xevDvYpz_UumO-19" target="vO2ole6xevDvYpz_UumO-21">
          <mxGeometry relative="1" as="geometry" />
        </mxCell>
        <mxCell id="vO2ole6xevDvYpz_UumO-19" value="x = input&lt;div&gt;y = input&lt;/div&gt;&lt;div&gt;array [][]&lt;/div&gt;" style="whiteSpace=wrap;html=1;dashed=0;" vertex="1" parent="1">
          <mxGeometry x="265" y="380" width="120" height="60" as="geometry" />
        </mxCell>
        <mxCell id="vO2ole6xevDvYpz_UumO-26" value="" style="edgeStyle=orthogonalEdgeStyle;rounded=0;orthogonalLoop=1;jettySize=auto;html=1;" edge="1" parent="1" source="vO2ole6xevDvYpz_UumO-21" target="vO2ole6xevDvYpz_UumO-25">
          <mxGeometry relative="1" as="geometry" />
        </mxCell>
        <mxCell id="vO2ole6xevDvYpz_UumO-21" value="&lt;span id=&quot;docs-internal-guid-143ecfe1-7fff-35a1-d5c2-43c6f7c5462f&quot;&gt;&lt;p style=&quot;line-height:1.38;margin-top:0pt;margin-bottom:0pt;&quot; dir=&quot;ltr&quot;&gt;&lt;span style=&quot;font-size: 11pt; font-family: Arial, sans-serif; background-color: transparent; font-variant-numeric: normal; font-variant-east-asian: normal; font-variant-alternates: normal; font-variant-position: normal; font-variant-emoji: normal; vertical-align: baseline; white-space-collapse: preserve;&quot;&gt;Display &quot;Enter the array&quot;&lt;/span&gt;&lt;/p&gt;&lt;/span&gt;" style="shape=parallelogram;perimeter=parallelogramPerimeter;whiteSpace=wrap;html=1;dashed=0;" vertex="1" parent="1">
          <mxGeometry x="160" y="470" width="310" height="110" as="geometry" />
        </mxCell>
        <mxCell id="vO2ole6xevDvYpz_UumO-28" value="" style="edgeStyle=orthogonalEdgeStyle;rounded=0;orthogonalLoop=1;jettySize=auto;html=1;" edge="1" parent="1" source="vO2ole6xevDvYpz_UumO-25" target="vO2ole6xevDvYpz_UumO-27">
          <mxGeometry relative="1" as="geometry" />
        </mxCell>
        <mxCell id="vO2ole6xevDvYpz_UumO-41" style="edgeStyle=orthogonalEdgeStyle;rounded=0;orthogonalLoop=1;jettySize=auto;html=1;exitX=1;exitY=0.5;exitDx=0;exitDy=0;" edge="1" parent="1" source="vO2ole6xevDvYpz_UumO-25">
          <mxGeometry relative="1" as="geometry">
            <mxPoint x="450" y="820" as="targetPoint" />
          </mxGeometry>
        </mxCell>
        <mxCell id="vO2ole6xevDvYpz_UumO-42" value="YES" style="edgeLabel;html=1;align=center;verticalAlign=middle;resizable=0;points=[];" vertex="1" connectable="0" parent="vO2ole6xevDvYpz_UumO-41">
          <mxGeometry x="0.2215" y="5" relative="1" as="geometry">
            <mxPoint as="offset" />
          </mxGeometry>
        </mxCell>
        <mxCell id="vO2ole6xevDvYpz_UumO-43" style="edgeStyle=orthogonalEdgeStyle;rounded=0;orthogonalLoop=1;jettySize=auto;html=1;exitX=0;exitY=0;exitDx=0;exitDy=0;" edge="1" parent="1" source="vO2ole6xevDvYpz_UumO-25">
          <mxGeometry relative="1" as="geometry">
            <mxPoint x="130" y="1050" as="targetPoint" />
          </mxGeometry>
        </mxCell>
        <mxCell id="vO2ole6xevDvYpz_UumO-44" value="NO" style="edgeLabel;html=1;align=center;verticalAlign=middle;resizable=0;points=[];" vertex="1" connectable="0" parent="vO2ole6xevDvYpz_UumO-43">
          <mxGeometry x="0.1363" relative="1" as="geometry">
            <mxPoint as="offset" />
          </mxGeometry>
        </mxCell>
        <mxCell id="vO2ole6xevDvYpz_UumO-25" value="i &amp;lt; x" style="rhombus;whiteSpace=wrap;html=1;dashed=0;" vertex="1" parent="1">
          <mxGeometry x="232.5" y="620" width="165" height="115" as="geometry" />
        </mxCell>
        <mxCell id="vO2ole6xevDvYpz_UumO-30" value="" style="edgeStyle=orthogonalEdgeStyle;rounded=0;orthogonalLoop=1;jettySize=auto;html=1;" edge="1" parent="1" source="vO2ole6xevDvYpz_UumO-27" target="vO2ole6xevDvYpz_UumO-29">
          <mxGeometry relative="1" as="geometry" />
        </mxCell>
        <mxCell id="vO2ole6xevDvYpz_UumO-37" value="YES" style="edgeLabel;html=1;align=center;verticalAlign=middle;resizable=0;points=[];" vertex="1" connectable="0" parent="vO2ole6xevDvYpz_UumO-30">
          <mxGeometry x="0.0512" y="1" relative="1" as="geometry">
            <mxPoint as="offset" />
          </mxGeometry>
        </mxCell>
        <mxCell id="vO2ole6xevDvYpz_UumO-38" style="edgeStyle=orthogonalEdgeStyle;rounded=0;orthogonalLoop=1;jettySize=auto;html=1;exitX=0;exitY=0.5;exitDx=0;exitDy=0;entryX=0;entryY=0.5;entryDx=0;entryDy=0;" edge="1" parent="1" source="vO2ole6xevDvYpz_UumO-27" target="vO2ole6xevDvYpz_UumO-25">
          <mxGeometry relative="1" as="geometry">
            <Array as="points">
              <mxPoint x="160" y="817" />
              <mxPoint x="160" y="677" />
            </Array>
          </mxGeometry>
        </mxCell>
        <mxCell id="vO2ole6xevDvYpz_UumO-39" value="NO" style="edgeLabel;html=1;align=center;verticalAlign=middle;resizable=0;points=[];" vertex="1" connectable="0" parent="vO2ole6xevDvYpz_UumO-38">
          <mxGeometry x="-0.0266" y="5" relative="1" as="geometry">
            <mxPoint as="offset" />
          </mxGeometry>
        </mxCell>
        <mxCell id="vO2ole6xevDvYpz_UumO-27" value="j &amp;lt; y" style="rhombus;whiteSpace=wrap;html=1;dashed=0;" vertex="1" parent="1">
          <mxGeometry x="232.5" y="760" width="165" height="115" as="geometry" />
        </mxCell>
        <mxCell id="vO2ole6xevDvYpz_UumO-34" value="" style="edgeStyle=orthogonalEdgeStyle;rounded=0;orthogonalLoop=1;jettySize=auto;html=1;" edge="1" parent="1" source="vO2ole6xevDvYpz_UumO-29" target="vO2ole6xevDvYpz_UumO-33">
          <mxGeometry relative="1" as="geometry" />
        </mxCell>
        <mxCell id="vO2ole6xevDvYpz_UumO-29" value="array [ i ][ j ] = input" style="whiteSpace=wrap;html=1;dashed=0;" vertex="1" parent="1">
          <mxGeometry x="255" y="950" width="120" height="60" as="geometry" />
        </mxCell>
        <mxCell id="vO2ole6xevDvYpz_UumO-35" style="edgeStyle=orthogonalEdgeStyle;rounded=0;orthogonalLoop=1;jettySize=auto;html=1;exitX=0.25;exitY=0;exitDx=0;exitDy=0;entryX=1;entryY=0.5;entryDx=0;entryDy=0;" edge="1" parent="1" source="vO2ole6xevDvYpz_UumO-33" target="vO2ole6xevDvYpz_UumO-27">
          <mxGeometry relative="1" as="geometry" />
        </mxCell>
        <mxCell id="vO2ole6xevDvYpz_UumO-33" value="++i" style="whiteSpace=wrap;html=1;dashed=0;" vertex="1" parent="1">
          <mxGeometry x="480" y="950" width="120" height="60" as="geometry" />
        </mxCell>
        <mxCell id="vO2ole6xevDvYpz_UumO-47" value="" style="edgeStyle=orthogonalEdgeStyle;rounded=0;orthogonalLoop=1;jettySize=auto;html=1;" edge="1" parent="1" source="vO2ole6xevDvYpz_UumO-45" target="vO2ole6xevDvYpz_UumO-46">
          <mxGeometry relative="1" as="geometry" />
        </mxCell>
        <mxCell id="vO2ole6xevDvYpz_UumO-45" value="FindLargestElement(array)" style="html=1;dashed=0;whiteSpace=wrap;" vertex="1" parent="1">
          <mxGeometry x="80" y="1050" width="230" height="80" as="geometry" />
        </mxCell>
        <mxCell id="vO2ole6xevDvYpz_UumO-92" style="edgeStyle=orthogonalEdgeStyle;rounded=0;orthogonalLoop=1;jettySize=auto;html=1;exitX=1;exitY=0.5;exitDx=0;exitDy=0;entryX=0.5;entryY=0;entryDx=0;entryDy=0;" edge="1" parent="1" source="vO2ole6xevDvYpz_UumO-46" target="vO2ole6xevDvYpz_UumO-81">
          <mxGeometry relative="1" as="geometry" />
        </mxCell>
        <mxCell id="vO2ole6xevDvYpz_UumO-46" value="&lt;span id=&quot;docs-internal-guid-f259a05c-7fff-70e2-516a-01ee2dd16dad&quot;&gt;&lt;p style=&quot;line-height:1.38;margin-top:0pt;margin-bottom:0pt;&quot; dir=&quot;ltr&quot;&gt;&lt;span style=&quot;font-size: 11pt; font-family: Arial, sans-serif; background-color: transparent; font-variant-numeric: normal; font-variant-east-asian: normal; font-variant-alternates: normal; font-variant-position: normal; font-variant-emoji: normal; vertical-align: baseline; white-space-collapse: preserve;&quot;&gt;Display “The largest element is “ largestValue “located at ( x, y)”&lt;/span&gt;&lt;/p&gt;&lt;div&gt;&lt;span style=&quot;font-size: 11pt; font-family: Arial, sans-serif; background-color: transparent; font-variant-numeric: normal; font-variant-east-asian: normal; font-variant-alternates: normal; font-variant-position: normal; font-variant-emoji: normal; vertical-align: baseline; white-space-collapse: preserve;&quot;&gt;&lt;br&gt;&lt;/span&gt;&lt;/div&gt;&lt;/span&gt;" style="shape=parallelogram;perimeter=parallelogramPerimeter;whiteSpace=wrap;html=1;fixedSize=1;dashed=0;" vertex="1" parent="1">
          <mxGeometry x="135" y="1190" width="325" height="100" as="geometry" />
        </mxCell>
        <mxCell id="vO2ole6xevDvYpz_UumO-76" value="" style="edgeStyle=orthogonalEdgeStyle;rounded=0;orthogonalLoop=1;jettySize=auto;html=1;" edge="1" parent="1" source="vO2ole6xevDvYpz_UumO-81" target="vO2ole6xevDvYpz_UumO-86">
          <mxGeometry relative="1" as="geometry" />
        </mxCell>
        <mxCell id="vO2ole6xevDvYpz_UumO-77" style="edgeStyle=orthogonalEdgeStyle;rounded=0;orthogonalLoop=1;jettySize=auto;html=1;exitX=1;exitY=0.5;exitDx=0;exitDy=0;" edge="1" parent="1" source="vO2ole6xevDvYpz_UumO-81">
          <mxGeometry relative="1" as="geometry">
            <mxPoint x="767.5" y="1540" as="targetPoint" />
          </mxGeometry>
        </mxCell>
        <mxCell id="vO2ole6xevDvYpz_UumO-78" value="YES" style="edgeLabel;html=1;align=center;verticalAlign=middle;resizable=0;points=[];" vertex="1" connectable="0" parent="vO2ole6xevDvYpz_UumO-77">
          <mxGeometry x="0.2215" y="5" relative="1" as="geometry">
            <mxPoint as="offset" />
          </mxGeometry>
        </mxCell>
        <mxCell id="vO2ole6xevDvYpz_UumO-79" style="edgeStyle=orthogonalEdgeStyle;rounded=0;orthogonalLoop=1;jettySize=auto;html=1;exitX=0;exitY=0;exitDx=0;exitDy=0;" edge="1" parent="1" source="vO2ole6xevDvYpz_UumO-81">
          <mxGeometry relative="1" as="geometry">
            <mxPoint x="447.5" y="1770" as="targetPoint" />
          </mxGeometry>
        </mxCell>
        <mxCell id="vO2ole6xevDvYpz_UumO-80" value="NO" style="edgeLabel;html=1;align=center;verticalAlign=middle;resizable=0;points=[];" vertex="1" connectable="0" parent="vO2ole6xevDvYpz_UumO-79">
          <mxGeometry x="0.1363" relative="1" as="geometry">
            <mxPoint as="offset" />
          </mxGeometry>
        </mxCell>
        <mxCell id="vO2ole6xevDvYpz_UumO-81" value="i &amp;lt; length" style="rhombus;whiteSpace=wrap;html=1;dashed=0;" vertex="1" parent="1">
          <mxGeometry x="550" y="1340" width="165" height="115" as="geometry" />
        </mxCell>
        <mxCell id="vO2ole6xevDvYpz_UumO-82" value="" style="edgeStyle=orthogonalEdgeStyle;rounded=0;orthogonalLoop=1;jettySize=auto;html=1;" edge="1" parent="1" source="vO2ole6xevDvYpz_UumO-93" target="vO2ole6xevDvYpz_UumO-88">
          <mxGeometry relative="1" as="geometry" />
        </mxCell>
        <mxCell id="vO2ole6xevDvYpz_UumO-83" value="YES" style="edgeLabel;html=1;align=center;verticalAlign=middle;resizable=0;points=[];" vertex="1" connectable="0" parent="vO2ole6xevDvYpz_UumO-82">
          <mxGeometry x="0.0512" y="1" relative="1" as="geometry">
            <mxPoint as="offset" />
          </mxGeometry>
        </mxCell>
        <mxCell id="vO2ole6xevDvYpz_UumO-84" style="edgeStyle=orthogonalEdgeStyle;rounded=0;orthogonalLoop=1;jettySize=auto;html=1;exitX=0;exitY=0.5;exitDx=0;exitDy=0;entryX=0;entryY=0.5;entryDx=0;entryDy=0;" edge="1" parent="1" source="vO2ole6xevDvYpz_UumO-86" target="vO2ole6xevDvYpz_UumO-81">
          <mxGeometry relative="1" as="geometry">
            <Array as="points">
              <mxPoint x="477.5" y="1537" />
              <mxPoint x="477.5" y="1397" />
            </Array>
          </mxGeometry>
        </mxCell>
        <mxCell id="vO2ole6xevDvYpz_UumO-85" value="NO" style="edgeLabel;html=1;align=center;verticalAlign=middle;resizable=0;points=[];" vertex="1" connectable="0" parent="vO2ole6xevDvYpz_UumO-84">
          <mxGeometry x="-0.0266" y="5" relative="1" as="geometry">
            <mxPoint as="offset" />
          </mxGeometry>
        </mxCell>
        <mxCell id="vO2ole6xevDvYpz_UumO-86" value="j &amp;lt; length" style="rhombus;whiteSpace=wrap;html=1;dashed=0;" vertex="1" parent="1">
          <mxGeometry x="550" y="1480" width="165" height="115" as="geometry" />
        </mxCell>
        <mxCell id="vO2ole6xevDvYpz_UumO-87" value="" style="edgeStyle=orthogonalEdgeStyle;rounded=0;orthogonalLoop=1;jettySize=auto;html=1;" edge="1" parent="1" source="vO2ole6xevDvYpz_UumO-88" target="vO2ole6xevDvYpz_UumO-90">
          <mxGeometry relative="1" as="geometry" />
        </mxCell>
        <mxCell id="vO2ole6xevDvYpz_UumO-88" value="max = array [ i ][ j ]&lt;div&gt;x = i, y = j&lt;/div&gt;" style="whiteSpace=wrap;html=1;dashed=0;" vertex="1" parent="1">
          <mxGeometry x="650" y="1920" width="120" height="60" as="geometry" />
        </mxCell>
        <mxCell id="vO2ole6xevDvYpz_UumO-89" style="edgeStyle=orthogonalEdgeStyle;rounded=0;orthogonalLoop=1;jettySize=auto;html=1;exitX=0.25;exitY=0;exitDx=0;exitDy=0;entryX=1;entryY=0.5;entryDx=0;entryDy=0;" edge="1" parent="1" source="vO2ole6xevDvYpz_UumO-90" target="vO2ole6xevDvYpz_UumO-86">
          <mxGeometry relative="1" as="geometry" />
        </mxCell>
        <mxCell id="vO2ole6xevDvYpz_UumO-90" value="++i" style="whiteSpace=wrap;html=1;dashed=0;" vertex="1" parent="1">
          <mxGeometry x="797.5" y="1670" width="120" height="60" as="geometry" />
        </mxCell>
        <mxCell id="vO2ole6xevDvYpz_UumO-91" value="FindLargestElement(array)" style="html=1;dashed=0;whiteSpace=wrap;" vertex="1" parent="1">
          <mxGeometry x="397.5" y="1770" width="230" height="80" as="geometry" />
        </mxCell>
        <mxCell id="vO2ole6xevDvYpz_UumO-94" value="" style="edgeStyle=orthogonalEdgeStyle;rounded=0;orthogonalLoop=1;jettySize=auto;html=1;" edge="1" parent="1" source="vO2ole6xevDvYpz_UumO-86" target="vO2ole6xevDvYpz_UumO-93">
          <mxGeometry relative="1" as="geometry">
            <mxPoint x="633" y="1595" as="sourcePoint" />
            <mxPoint x="710" y="1920" as="targetPoint" />
          </mxGeometry>
        </mxCell>
        <mxCell id="vO2ole6xevDvYpz_UumO-93" value="array[ i ][ j ] &amp;gt; max" style="shape=rhombus;html=1;dashed=0;whiteSpace=wrap;perimeter=rhombusPerimeter;" vertex="1" parent="1">
          <mxGeometry x="602.5" y="1650" width="127.5" height="100" as="geometry" />
        </mxCell>
      </root>
    </mxGraphModel>
  </diagram>
</mxfile>
